<?xml version="1.0" encoding="UTF-8" standalone="no"?>
<!-- Created with Inkscape (http://www.inkscape.org/) -->

<svg
   xmlns:dc="http://purl.org/dc/elements/1.1/"
   xmlns:cc="http://creativecommons.org/ns#"
   xmlns:rdf="http://www.w3.org/1999/02/22-rdf-syntax-ns#"
   xmlns:svg="http://www.w3.org/2000/svg"
   xmlns="http://www.w3.org/2000/svg"
   xmlns:sodipodi="http://sodipodi.sourceforge.net/DTD/sodipodi-0.dtd"
   xmlns:inkscape="http://www.inkscape.org/namespaces/inkscape"
   width="297mm"
   height="210mm"
   viewBox="0 0 297 210"
   version="1.1"
   id="svg8"
   inkscape:version="0.92.2 (5c3e80d, 2017-08-06)"
   sodipodi:docname="bomba.svg">
  <defs
     id="defs2">
    <inkscape:path-effect
       effect="spiro"
       id="path-effect1089"
       is_visible="true" />
    <inkscape:path-effect
       effect="spiro"
       id="path-effect1085"
       is_visible="true" />
    <inkscape:path-effect
       effect="spiro"
       id="path-effect974"
       is_visible="true" />
    <inkscape:path-effect
       effect="spiro"
       id="path-effect970"
       is_visible="true" />
    <inkscape:path-effect
       effect="spiro"
       id="path-effect962"
       is_visible="true" />
    <inkscape:path-effect
       effect="spiro"
       id="path-effect958"
       is_visible="true" />
    <inkscape:path-effect
       effect="spiro"
       id="path-effect908"
       is_visible="true" />
    <inkscape:path-effect
       effect="spiro"
       id="path-effect904"
       is_visible="true" />
    <inkscape:path-effect
       effect="spiro"
       id="path-effect868"
       is_visible="true" />
    <inkscape:path-effect
       effect="spiro"
       id="path-effect1010"
       is_visible="true" />
    <inkscape:path-effect
       effect="spiro"
       id="path-effect1006"
       is_visible="true" />
    <inkscape:path-effect
       effect="spiro"
       id="path-effect874"
       is_visible="true" />
    <inkscape:path-effect
       effect="spiro"
       id="path-effect862"
       is_visible="true" />
    <inkscape:path-effect
       effect="spiro"
       id="path-effect858"
       is_visible="true" />
    <inkscape:path-effect
       effect="spiro"
       id="path-effect854"
       is_visible="true" />
    <inkscape:path-effect
       effect="spiro"
       id="path-effect850"
       is_visible="true" />
    <inkscape:path-effect
       effect="spiro"
       id="path-effect846"
       is_visible="true" />
    <inkscape:path-effect
       effect="spiro"
       id="path-effect840"
       is_visible="true" />
    <filter
       inkscape:collect="always"
       style="color-interpolation-filters:sRGB"
       id="filter1277"
       x="-0.044230631"
       width="1.0884613"
       y="-0.52602856"
       height="2.0520571">
      <feGaussianBlur
         inkscape:collect="always"
         stdDeviation="2.9759046"
         id="feGaussianBlur1279" />
    </filter>
    <filter
       inkscape:collect="always"
       style="color-interpolation-filters:sRGB"
       id="filter1277-1"
       x="-0.044230632"
       width="1.0884613"
       y="-0.52602857"
       height="2.052057">
      <feGaussianBlur
         inkscape:collect="always"
         stdDeviation="2.9759046"
         id="feGaussianBlur1279-1" />
    </filter>
  </defs>
  <sodipodi:namedview
     id="base"
     pagecolor="#ffffff"
     bordercolor="#666666"
     borderopacity="1.0"
     inkscape:pageopacity="0.0"
     inkscape:pageshadow="2"
     inkscape:zoom="0.54563172"
     inkscape:cx="506.24078"
     inkscape:cy="371.31394"
     inkscape:document-units="mm"
     inkscape:current-layer="layer1"
     showgrid="false"
     inkscape:window-width="1366"
     inkscape:window-height="705"
     inkscape:window-x="-8"
     inkscape:window-y="-8"
     inkscape:window-maximized="1"
     showguides="false" />
  <metadata
     id="metadata5">
    <rdf:RDF>
      <cc:Work
         rdf:about="">
        <dc:format>image/svg+xml</dc:format>
        <dc:type
           rdf:resource="http://purl.org/dc/dcmitype/StillImage" />
        <dc:title></dc:title>
      </cc:Work>
    </rdf:RDF>
  </metadata>
  <g
     inkscape:label="Capa 1"
     inkscape:groupmode="layer"
     id="layer1"
     transform="translate(0,-87)">
    <rect
       style="opacity:1;fill:#deaa87;fill-opacity:1;fill-rule:nonzero;stroke:none;stroke-width:0.26499999;stroke-linecap:butt;stroke-linejoin:miter;stroke-miterlimit:4;stroke-dasharray:none;stroke-dashoffset:0;stroke-opacity:1;paint-order:stroke fill markers"
       id="rect1135"
       width="297.73593"
       height="210.45177"
       x="-0.48491278"
       y="87.033127" />
    <ellipse
       style="opacity:1;fill:#000000;fill-opacity:1;fill-rule:nonzero;stroke:none;stroke-width:0.26499999;stroke-linecap:butt;stroke-linejoin:miter;stroke-miterlimit:4;stroke-dasharray:none;stroke-dashoffset:0;stroke-opacity:1;paint-order:stroke fill markers;filter:url(#filter1277)"
       id="path1175"
       cx="113.71185"
       cy="284.8772"
       rx="80.737839"
       ry="6.7887673" />
    <ellipse
       style="opacity:1;fill:#000000;fill-opacity:1;fill-rule:nonzero;stroke:none;stroke-width:0.26499999;stroke-linecap:butt;stroke-linejoin:miter;stroke-miterlimit:4;stroke-dasharray:none;stroke-dashoffset:0;stroke-opacity:1;paint-order:stroke fill markers"
       id="path1104"
       cx="108.86274"
       cy="211.6555"
       rx="77.343452"
       ry="74.191521" />
    <ellipse
       style="opacity:1;fill:#ffffff;fill-opacity:1;fill-rule:nonzero;stroke:none;stroke-width:0.26499999;stroke-linecap:butt;stroke-linejoin:miter;stroke-miterlimit:4;stroke-dasharray:none;stroke-dashoffset:0;stroke-opacity:1;paint-order:stroke fill markers"
       id="path1106"
       cx="110.4863"
       cy="211.71358"
       rx="14.304902"
       ry="25.700333"
       transform="rotate(-7.0200323)" />
    <ellipse
       style="opacity:1;fill:#ffffff;fill-opacity:1;fill-rule:nonzero;stroke:none;stroke-width:0.26499999;stroke-linecap:butt;stroke-linejoin:miter;stroke-miterlimit:4;stroke-dasharray:none;stroke-dashoffset:0;stroke-opacity:1;paint-order:stroke fill markers"
       id="path1108"
       cx="120.78641"
       cy="188.07872"
       rx="13.819989"
       ry="25.21542"
       transform="rotate(4.8366134)" />
    <ellipse
       style="opacity:1;fill:#000000;fill-opacity:1;fill-rule:nonzero;stroke:none;stroke-width:0.26499999;stroke-linecap:butt;stroke-linejoin:miter;stroke-miterlimit:4;stroke-dasharray:none;stroke-dashoffset:0;stroke-opacity:1;paint-order:stroke fill markers"
       id="path1112"
       cx="111.04482"
       cy="200.01762"
       rx="4.3642073"
       ry="7.2736788" />
    <ellipse
       style="opacity:1;fill:#000000;fill-opacity:1;fill-rule:nonzero;stroke:none;stroke-width:0.26499999;stroke-linecap:butt;stroke-linejoin:miter;stroke-miterlimit:4;stroke-dasharray:none;stroke-dashoffset:0;stroke-opacity:1;paint-order:stroke fill markers"
       id="path1112-2"
       cx="128.50166"
       cy="200.01761"
       rx="4.3642073"
       ry="7.2736788" />
    <rect
       style="opacity:1;fill:#000000;fill-opacity:1;fill-rule:nonzero;stroke:none;stroke-width:0.26499999;stroke-linecap:butt;stroke-linejoin:miter;stroke-miterlimit:4;stroke-dasharray:none;stroke-dashoffset:0;stroke-opacity:1;paint-order:stroke fill markers"
       id="rect1129"
       width="47.036457"
       height="20.366301"
       x="84.859581"
       y="129.70538" />
    <path
       style="opacity:1;fill:#000000;fill-opacity:1;fill-rule:nonzero;stroke:none;stroke-width:0.26499999;stroke-linecap:butt;stroke-linejoin:miter;stroke-miterlimit:4;stroke-dasharray:none;stroke-dashoffset:0;stroke-opacity:1;paint-order:stroke fill markers"
       id="path1131"
       d="m 101.08001,141.23155 c -1.924036,-1.34537 -2.678443,-2.7945 -3.407947,-4.98161 -0.777126,-3.04257 -0.839708,-6.20369 -0.92099,-9.32567 -0.232053,-2.79527 0.361346,-5.42835 1.361797,-8.01437 0.911669,-2.10727 2.2226,-4.00423 3.58,-5.84399 1.19353,-1.64053 2.62421,-3.09543 4.18144,-4.38949 1.55824,-1.23261 3.24393,-2.2782 4.95553,-3.27928 1.02798,-0.66003 2.09098,-1.13474 3.25715,-1.48632 1.97068,-0.71965 3.99761,-1.25385 6.03413,-1.74948 2.63032,-0.50403 5.29347,-0.8285 7.9587,-1.08226 2.25835,-0.19314 4.52586,-0.21515 6.79087,-0.23016 2.46539,-0.008 4.93081,-0.002 7.39621,4.5e-4 2.02557,0.002 4.05114,0.003 6.07671,0.004 2.7507,0.25262 5.21519,1.58731 7.69718,2.69244 4.57795,1.84056 9.21159,3.53046 13.76205,5.44179 4.31803,1.92005 8.6626,3.7822 12.84622,5.9855 2.23296,1.232 4.35594,2.69728 6.29647,4.35398 1.15996,0.92547 2.27725,1.8977 3.30017,2.97304 1.15517,1.18224 2.05603,2.56557 2.99697,3.91375 0.93523,1.28442 1.66493,2.69546 2.57481,3.99511 1.06188,1.38677 1.87827,2.92801 2.80137,4.40329 0.85497,1.60053 1.74028,3.18421 2.61532,4.7738 0.67874,1.28911 1.57684,2.43593 2.22456,3.74052 0.98477,1.71723 1.76375,3.52783 2.50907,5.35836 0.76991,2.09711 1.65265,4.14781 2.72378,6.10864 0.62841,1.14882 0.33007,0.58262 0.89733,1.69739 0.46618,0.91695 -0.83058,1.57623 -1.29677,0.65928 v 0 c -0.54689,-1.07671 -0.25545,-0.52256 -0.87792,-1.66053 -1.09338,-2.01063 -2.00763,-4.10682 -2.79382,-6.25637 -0.73227,-1.79987 -1.49845,-3.57812 -2.46763,-5.2659 -0.62375,-1.28957 -1.54585,-2.40044 -2.19312,-3.68006 -0.86158,-1.56642 -1.73708,-3.12497 -2.57465,-4.7045 -0.90771,-1.45577 -1.71419,-2.97337 -2.76017,-4.34094 -0.90744,-1.30213 -1.64554,-2.7075 -2.57545,-3.99604 -0.89835,-1.2895 -1.75642,-2.61419 -2.85972,-3.74528 -0.98352,-1.04291 -2.07316,-1.97026 -3.18965,-2.86801 -1.85556,-1.58997 -3.89347,-2.98922 -6.02923,-4.17261 -4.14472,-2.18628 -8.45353,-4.02532 -12.73135,-5.93121 -4.5598,-1.91568 -9.2044,-3.60585 -13.79039,-5.45406 -2.29672,-1.02272 -4.57279,-2.26981 -7.10577,-2.56664 -2.02597,-4.8e-4 -4.05194,-0.001 -6.07791,-0.004 -2.46168,-0.003 -4.92337,-0.008 -7.38505,-5e-4 -2.22222,0.0147 -4.44692,0.0353 -6.66271,0.22366 -2.59603,0.24677 -5.18958,0.56328 -7.75272,1.04759 -2.01137,0.48876 -4.01189,1.01834 -5.95809,1.72879 -1.0577,0.31871 -2.01194,0.74045 -2.94251,1.3492 -1.64348,0.96124 -3.26364,1.96231 -4.76171,3.14364 -1.4703,1.2149 -2.81466,2.58979 -3.93968,4.13387 -1.28339,1.73446 -2.52307,3.52372 -3.39425,5.50692 -0.941192,2.40502 -1.485562,4.84567 -1.263322,7.44921 0.07722,2.98056 0.131672,5.99813 0.848341,8.90797 0.590831,1.81652 1.220651,3.11599 2.833291,4.22666 0.8559,0.5706 0.049,1.78101 -0.80694,1.21041 z"
       inkscape:connector-curvature="0" />
    <ellipse
       style="opacity:1;fill:#000000;fill-opacity:1;fill-rule:nonzero;stroke:none;stroke-width:0.26499999;stroke-linecap:butt;stroke-linejoin:miter;stroke-miterlimit:4;stroke-dasharray:none;stroke-dashoffset:0;stroke-opacity:1;paint-order:stroke fill markers"
       id="path1133"
       cx="208.75458"
       cy="160.73975"
       rx="13.335078"
       ry="12.122798" />
    <ellipse
       style="opacity:1;fill:#000000;fill-opacity:1;fill-rule:nonzero;stroke:none;stroke-width:0.26499999;stroke-linecap:butt;stroke-linejoin:miter;stroke-miterlimit:4;stroke-dasharray:none;stroke-dashoffset:0;stroke-opacity:1;paint-order:stroke fill markers"
       id="path1104-9"
       cx="-247.38774"
       cy="244.02898"
       rx="37.982918"
       ry="35.882"
       transform="scale(-1,1)" />
    <ellipse
       style="opacity:1;fill:#ffffff;fill-opacity:1;fill-rule:nonzero;stroke:none;stroke-width:0.26499999;stroke-linecap:butt;stroke-linejoin:miter;stroke-miterlimit:4;stroke-dasharray:none;stroke-dashoffset:0;stroke-opacity:1;paint-order:stroke fill markers"
       id="path1106-5"
       cx="-234.29019"
       cy="236.75876"
       rx="7.0250535"
       ry="12.429712"
       transform="scale(-1,1)" />
    <ellipse
       style="opacity:1;fill:#ffffff;fill-opacity:1;fill-rule:nonzero;stroke:none;stroke-width:0.26499999;stroke-linecap:butt;stroke-linejoin:miter;stroke-miterlimit:4;stroke-dasharray:none;stroke-dashoffset:0;stroke-opacity:1;paint-order:stroke fill markers"
       id="path1108-9"
       cx="-249.53096"
       cy="237.22781"
       rx="6.7869158"
       ry="12.195189"
       transform="scale(-1,1)" />
    <ellipse
       style="opacity:1;fill:#000000;fill-opacity:1;fill-rule:nonzero;stroke:none;stroke-width:0.26499999;stroke-linecap:butt;stroke-linejoin:miter;stroke-miterlimit:4;stroke-dasharray:none;stroke-dashoffset:0;stroke-opacity:1;paint-order:stroke fill markers"
       id="path1112-1"
       cx="-246.80104"
       cy="233.55132"
       rx="2.1432366"
       ry="3.517843"
       transform="scale(-1,1)" />
    <ellipse
       style="opacity:1;fill:#000000;fill-opacity:1;fill-rule:nonzero;stroke:none;stroke-width:0.26499999;stroke-linecap:butt;stroke-linejoin:miter;stroke-miterlimit:4;stroke-dasharray:none;stroke-dashoffset:0;stroke-opacity:1;paint-order:stroke fill markers"
       id="path1112-2-7"
       cx="-235.80354"
       cy="232.5815"
       rx="2.1432366"
       ry="3.517843"
       transform="scale(-1,1)" />
    <rect
       style="opacity:1;fill:#000000;fill-opacity:1;fill-rule:nonzero;stroke:none;stroke-width:0.26499999;stroke-linecap:butt;stroke-linejoin:miter;stroke-miterlimit:4;stroke-dasharray:none;stroke-dashoffset:0;stroke-opacity:1;paint-order:stroke fill markers"
       id="rect1129-7"
       width="23.099329"
       height="9.8499613"
       x="-259.17554"
       y="204.39461"
       transform="scale(-1,1)" />
    <path
       style="opacity:1;fill:#000000;fill-opacity:1;fill-rule:nonzero;stroke:none;stroke-width:0.26499999;stroke-linecap:butt;stroke-linejoin:miter;stroke-miterlimit:4;stroke-dasharray:none;stroke-dashoffset:0;stroke-opacity:1;paint-order:stroke fill markers"
       id="path1131-6"
       d="m 251.20981,209.96912 c 0.94487,-0.65068 1.31536,-1.35154 1.67362,-2.40931 0.38164,-1.47151 0.41237,-3.00036 0.45229,-4.51027 0.11396,-1.3519 -0.17745,-2.62536 -0.66877,-3.87607 -0.44772,-1.01916 -1.09151,-1.93661 -1.75811,-2.82639 -0.58614,-0.79343 -1.28874,-1.49707 -2.05349,-2.12293 -0.76524,-0.59614 -1.59307,-1.10183 -2.43363,-1.58599 -0.50484,-0.31922 -1.02687,-0.54881 -1.59956,-0.71885 -0.9678,-0.34805 -1.96321,-0.60641 -2.96333,-0.84612 -1.29174,-0.24377 -2.5996,-0.4007 -3.90847,-0.52342 -1.10907,-0.0934 -2.22263,-0.10406 -3.33496,-0.11131 -1.21074,-0.004 -2.42149,-8.9e-4 -3.63223,2.2e-4 -0.99475,8.8e-4 -1.9895,0.002 -2.98424,0.002 -1.35086,0.12217 -2.56115,0.76768 -3.78005,1.30217 -2.24821,0.89017 -4.52376,1.70747 -6.75846,2.63187 -2.12055,0.92861 -4.25415,1.82922 -6.3087,2.89483 -1.09659,0.59584 -2.13917,1.30451 -3.09216,2.10575 -0.56965,0.4476 -1.11834,0.91781 -1.62069,1.43789 -0.5673,0.57178 -1.00971,1.24081 -1.47179,1.89285 -0.45929,0.62119 -0.81764,1.30362 -1.26448,1.93219 -0.52148,0.6707 -0.92241,1.4161 -1.37574,2.12961 -0.41987,0.77407 -0.85464,1.54001 -1.28436,2.30879 -0.33334,0.62347 -0.77438,1.17812 -1.09248,1.80907 -0.48361,0.83052 -0.86617,1.7062 -1.23219,2.59152 -0.37809,1.01425 -0.8116,2.00605 -1.33763,2.95439 -0.30861,0.55561 -0.16209,0.28178 -0.44067,0.82092 -0.22894,0.44348 0.4079,0.76233 0.63683,0.31886 v 0 c 0.26857,-0.52074 0.12545,-0.25273 0.43114,-0.80311 0.53696,-0.97241 0.98594,-1.98622 1.37203,-3.02583 0.35962,-0.87048 0.73588,-1.73052 1.21184,-2.5468 0.30633,-0.62368 0.75917,-1.16094 1.07703,-1.77982 0.42312,-0.75759 0.85307,-1.51136 1.2644,-2.27529 0.44577,-0.70406 0.84183,-1.43803 1.3555,-2.09944 0.44564,-0.62977 0.80812,-1.30946 1.26479,-1.93266 0.44118,-0.62365 0.86257,-1.26432 1.4044,-1.81136 0.483,-0.5044 1.01811,-0.9529 1.56641,-1.38708 0.91126,-0.76898 1.91206,-1.44571 2.96092,-2.01805 2.03544,-1.05737 4.15148,-1.94681 6.25229,-2.86857 2.23929,-0.9265 4.52023,-1.74393 6.77238,-2.6378 1.12791,-0.49463 2.24567,-1.09777 3.48961,-1.24133 0.99494,-2.4e-4 1.98988,-4.8e-4 2.98482,-0.002 1.20892,-0.002 2.41784,-0.004 3.62676,-2.4e-4 1.09131,0.007 2.18385,0.0171 3.27201,0.10817 1.2749,0.11935 2.54858,0.27243 3.80732,0.50665 0.98777,0.23639 1.97021,0.49251 2.92598,0.83612 0.51943,0.15414 0.98805,0.35811 1.44505,0.65253 0.80711,0.46489 1.60276,0.94905 2.33845,1.52039 0.72206,0.58757 1.38226,1.25252 1.93476,1.9993 0.63026,0.83886 1.23906,1.70422 1.66689,2.66337 0.46221,1.16317 0.72955,2.34356 0.62041,3.60274 -0.0379,1.44151 -0.0646,2.90094 -0.41662,4.30825 -0.29015,0.87854 -0.59945,1.50702 -1.39141,2.04418 -0.42033,0.27597 -0.024,0.86137 0.39629,0.58541 z"
       inkscape:connector-curvature="0" />
    <ellipse
       style="opacity:1;fill:#000000;fill-opacity:1;fill-rule:nonzero;stroke:none;stroke-width:0.26499999;stroke-linecap:butt;stroke-linejoin:miter;stroke-miterlimit:4;stroke-dasharray:none;stroke-dashoffset:0;stroke-opacity:1;paint-order:stroke fill markers"
       id="path1133-7"
       cx="-198.33144"
       cy="219.40407"
       rx="6.548779"
       ry="5.8630724"
       transform="scale(-1,1)" />
    <ellipse
       style="opacity:1;fill:#000000;fill-opacity:1;fill-rule:nonzero;stroke:none;stroke-width:0.36144435;stroke-linecap:butt;stroke-linejoin:miter;stroke-miterlimit:4;stroke-dasharray:none;stroke-dashoffset:0;stroke-opacity:1;paint-order:stroke fill markers;filter:url(#filter1277-1)"
       id="path1175-9"
       cx="229.84825"
       cy="284.3923"
       rx="80.737839"
       ry="6.7887673"
       transform="matrix(0.53753755,0,0,1,128.11722,-2.9094716)" />
  </g>
</svg>
