<?xml version="1.0" encoding="UTF-8" standalone="no"?>
<!-- Created with Inkscape (http://www.inkscape.org/) -->

<svg
   xmlns:dc="http://purl.org/dc/elements/1.1/"
   xmlns:cc="http://creativecommons.org/ns#"
   xmlns:rdf="http://www.w3.org/1999/02/22-rdf-syntax-ns#"
   xmlns:svg="http://www.w3.org/2000/svg"
   xmlns="http://www.w3.org/2000/svg"
   xmlns:xlink="http://www.w3.org/1999/xlink"
   xmlns:sodipodi="http://sodipodi.sourceforge.net/DTD/sodipodi-0.dtd"
   xmlns:inkscape="http://www.inkscape.org/namespaces/inkscape"
   width="297mm"
   height="210mm"
   viewBox="0 0 297 210"
   version="1.1"
   id="svg8"
   inkscape:version="0.92.2 (5c3e80d, 2017-08-06)"
   sodipodi:docname="hueso.svg">
  <defs
     id="defs2">
    <linearGradient
       inkscape:collect="always"
       id="linearGradient884-5">
      <stop
         style="stop-color:#000000;stop-opacity:1;"
         offset="0"
         id="stop880" />
      <stop
         style="stop-color:#000000;stop-opacity:0;"
         offset="1"
         id="stop882" />
    </linearGradient>
    <inkscape:path-effect
       effect="spiro"
       id="path-effect868"
       is_visible="true" />
    <inkscape:path-effect
       effect="spiro"
       id="path-effect1010"
       is_visible="true" />
    <inkscape:path-effect
       effect="spiro"
       id="path-effect1006"
       is_visible="true" />
    <inkscape:path-effect
       effect="spiro"
       id="path-effect874"
       is_visible="true" />
    <inkscape:path-effect
       effect="spiro"
       id="path-effect862"
       is_visible="true" />
    <inkscape:path-effect
       effect="spiro"
       id="path-effect858"
       is_visible="true" />
    <inkscape:path-effect
       effect="spiro"
       id="path-effect854"
       is_visible="true" />
    <inkscape:path-effect
       effect="spiro"
       id="path-effect850"
       is_visible="true" />
    <inkscape:path-effect
       effect="spiro"
       id="path-effect846"
       is_visible="true" />
    <inkscape:path-effect
       effect="spiro"
       id="path-effect840"
       is_visible="true" />
    <linearGradient
       inkscape:collect="always"
       xlink:href="#linearGradient884-5"
       id="linearGradient886"
       x1="63.52346"
       y1="189.72841"
       x2="297.25101"
       y2="201.3663"
       gradientUnits="userSpaceOnUse" />
  </defs>
  <sodipodi:namedview
     id="base"
     pagecolor="#ffffff"
     bordercolor="#666666"
     borderopacity="1.0"
     inkscape:pageopacity="0.0"
     inkscape:pageshadow="2"
     inkscape:zoom="0.54563172"
     inkscape:cx="662.26064"
     inkscape:cy="366.37158"
     inkscape:document-units="mm"
     inkscape:current-layer="layer1"
     showgrid="false"
     inkscape:window-width="1366"
     inkscape:window-height="705"
     inkscape:window-x="-8"
     inkscape:window-y="-8"
     inkscape:window-maximized="1" />
  <metadata
     id="metadata5">
    <rdf:RDF>
      <cc:Work
         rdf:about="">
        <dc:format>image/svg+xml</dc:format>
        <dc:type
           rdf:resource="http://purl.org/dc/dcmitype/StillImage" />
        <dc:title></dc:title>
      </cc:Work>
    </rdf:RDF>
  </metadata>
  <g
     inkscape:label="Capa 1"
     inkscape:groupmode="layer"
     id="layer1"
     transform="translate(0,-87)">
    <rect
       style="opacity:1;fill:#decd87;fill-opacity:1;fill-rule:nonzero;stroke:none;stroke-width:3.09999967;stroke-linecap:butt;stroke-linejoin:round;stroke-miterlimit:4;stroke-dasharray:none;stroke-dashoffset:0;stroke-opacity:1;paint-order:stroke fill markers"
       id="rect876"
       width="298.22086"
       height="212.87633"
       x="-0.48491195"
       y="86.063309" />
    <path
       style="fill:url(#linearGradient886);fill-opacity:1;stroke:none;stroke-width:0.26458332px;stroke-linecap:butt;stroke-linejoin:miter;stroke-opacity:1"
       d="m 173.59847,126.79591 11.77367,-0.69701 12.47193,0.69701 99.40694,39.27787 V 276.6337 C 157.26524,244.04604 128.01993,233.60648 58.189431,215.04988 l 7.273679,-36.36839 110.07501,-6.30386 z"
       id="path878"
       inkscape:connector-curvature="0"
       sodipodi:nodetypes="ccccccccc" />
    <path
       style="opacity:1;fill:#ffeeaa;fill-opacity:1;fill-rule:nonzero;stroke:#000000;stroke-width:11.71653558;stroke-linecap:butt;stroke-linejoin:round;stroke-miterlimit:4;stroke-dasharray:none;stroke-dashoffset:0;stroke-opacity:1;paint-order:stroke fill markers"
       d="m 700.61914,147.77539 c -3.10382,0.0711 -6.19557,0.28225 -9.26367,0.63281 -50.81916,5.8057 -85.15164,47.86741 -76.68359,93.94727 1.55676,8.29994 4.47104,16.39303 8.64648,24.01172 -96.5893,11.01995 -207.09595,19.72033 -289.61133,33.08593 -0.11455,-1.21918 -0.26499,-2.43635 -0.45117,-3.65039 -7.45507,-40.57033 -52.6359,-68.98805 -100.91406,-63.47265 -48.27797,5.51544 -81.37128,42.87516 -73.91602,83.44531 3.73138,20.08751 17.09071,38.16604 36.9668,50.02539 -17.55349,16.23562 -17.15417,47.48658 -13.15503,69.39807 7.45505,40.57106 44.38985,59.82534 92.6687,54.30896 47.83456,-5.48755 80.82432,-42.26788 74.02734,-82.5332 83.02903,-29.20665 187.48168,-36.98968 302.18555,-34.52149 12.19314,36.12256 54.39797,59.4777 98.46875,54.49024 48.27797,-5.51544 81.37128,-42.87516 73.91602,-83.44531 -4.29111,-23.11188 -21.27773,-43.37918 -45.85157,-54.70703 17.82862,-18.19663 25.53056,-42.87884 21.05078,-67.46094 -7.87521,-42.85348 -50.27293,-74.64818 -98.08398,-73.55469 z"
       transform="matrix(0.26458333,0,0,0.26458333,0,87)"
       id="path834"
       inkscape:connector-curvature="0"
       sodipodi:nodetypes="cccccccccccccccccc" />
    <path
       style="opacity:1;fill:#ffe680;fill-opacity:1;fill-rule:nonzero;stroke:none;stroke-width:0.37795275;stroke-linecap:butt;stroke-linejoin:round;stroke-miterlimit:4;stroke-dasharray:none;stroke-dashoffset:0;stroke-opacity:0.57070707;paint-order:stroke fill markers"
       d="m 306.3941,338.65491 c -3.93006,-1.41138 -7.40081,-2.82138 -7.71278,-3.13334 -0.31196,-0.31196 -1.24309,-0.5672 -2.06918,-0.5672 -0.82609,0 -2.8993,-1.03092 -4.60714,-2.29092 -1.70785,-1.26001 -3.85799,-2.29093 -4.77809,-2.29093 -0.92011,0 -3.30599,-1.03091 -5.30197,-2.29092 -1.99598,-1.26001 -4.46199,-2.29092 -5.48001,-2.29092 -1.01802,0 -1.85095,-0.41237 -1.85095,-0.91637 0,-0.504 -0.76082,-0.91637 -1.69071,-0.91637 -0.92989,0 -2.43708,-0.82473 -3.34931,-1.83274 -0.91224,-1.008 -2.35552,-1.83274 -3.2073,-1.83274 -0.85177,0 -2.20808,-0.72862 -3.014,-1.61915 -0.80593,-0.89053 -4.47804,-2.63413 -8.16026,-3.87465 -3.68221,-1.24052 -7.64852,-2.96262 -8.81402,-3.82689 -1.1655,-0.86426 -3.63969,-2.06448 -5.49821,-2.66713 -1.85852,-0.60265 -4.4737,-1.86323 -5.81151,-2.80128 -1.33781,-0.93804 -3.10331,-1.70554 -3.92333,-1.70554 -0.82002,0 -1.72831,-0.61855 -2.01841,-1.37455 -0.29011,-0.75601 -1.48993,-1.37455 -2.66627,-1.37455 -1.17634,0 -2.39365,-0.41237 -2.70515,-0.91637 -0.31149,-0.50401 -1.33237,-0.91637 -2.26864,-0.91637 -0.93626,0 -1.87382,-0.51546 -2.08348,-1.14546 -0.28937,-0.86956 -6.48345,-1.21904 -25.71511,-1.4509 -24.45831,-0.29488 -25.42659,-0.23946 -28.01498,1.60365 -1.47459,1.04999 -3.16232,1.90908 -3.75052,1.90908 -0.5882,0 -1.76164,0.69219 -2.60764,1.5382 -1.44002,1.44004 -1.5576,1.43749 -1.84218,-0.0399 -0.72497,-3.76386 2.82429,-17.00473 6.66567,-24.86697 7.34387,-15.03086 19.39751,-26.7682 35.79129,-34.85211 35.67379,-17.59103 79.68038,-12.17431 109.65312,13.49707 10.99469,9.41685 20.56036,25.16635 22.9563,37.79662 l 1.16463,6.13938 5.04795,-0.55891 c 53.75261,-5.95147 283.358,-32.4456 283.64178,-32.72938 0.21548,-0.21547 -1.01517,-3.66731 -2.73477,-7.67074 -4.63511,-10.79106 -6.30133,-20.45532 -5.73992,-33.29208 0.52815,-12.07627 2.07916,-18.67897 6.67824,-28.4295 11.78969,-24.99541 36.77988,-42.94559 66.3828,-47.68203 8.58414,-1.37345 25.08952,-1.18399 34.12534,0.39173 38.74648,6.75682 69.82675,35.00279 77.22754,70.18496 1.38505,6.58428 1.82954,22.10096 0.783,27.33364 -0.48251,2.41257 -0.89703,2.79393 -2.52001,2.31849 -4.31711,-1.26464 -8.76937,-3.66905 -8.79163,-4.74784 -0.013,-0.63 -0.40742,-1.14546 -0.87648,-1.14546 -1.51973,0 -7.31575,-4.0917 -7.3557,-5.19276 -0.0213,-0.588 -0.46834,-1.21228 -0.99335,-1.38728 -0.52501,-0.17501 -1.06118,-1.75574 -1.19152,-3.51275 -0.35748,-4.81944 -3.56148,-11.09826 -7.48442,-14.66712 -1.92817,-1.75414 -4.57068,-4.21687 -5.87224,-5.47273 -1.30155,-1.25587 -5.06009,-3.57957 -8.35233,-5.1638 -3.29223,-1.58423 -6.53856,-3.54636 -7.21406,-4.36029 -0.6755,-0.81393 -1.69316,-1.48905 -2.26145,-1.50025 -0.56829,-0.0112 -2.06417,-0.82677 -3.32418,-1.81237 -1.26001,-0.98559 -3.01256,-1.80115 -3.89457,-1.81236 -0.882,-0.0112 -1.60364,-0.40945 -1.60364,-0.88498 0,-0.47553 -4.78913,-3.259 -10.64251,-6.18549 -5.85338,-2.92649 -11.93578,-6.04594 -13.51644,-6.93211 -3.18597,-1.78616 -11.69657,-1.70285 -12.30435,0.12045 -0.1893,0.56792 -1.07065,1.03259 -1.95854,1.03259 -0.88789,0 -2.36072,0.82473 -3.27295,1.83274 -0.91224,1.008 -2.11015,1.83483 -2.66205,1.83739 -1.95001,0.009 -14.8812,13.92263 -19.58399,21.07183 -3.1895,4.84867 -7.00848,9.8522 -9.85062,12.90604 -0.74295,0.79829 -1.35081,2.09436 -1.35081,2.88016 0,0.7858 -0.56648,1.64611 -1.25885,1.9118 -0.69236,0.26568 -1.55199,2.06236 -1.91027,3.99261 -0.35829,1.93025 -1.27548,4.2052 -2.03821,5.05544 -0.76274,0.85025 -1.14609,1.93537 -0.8519,2.41139 0.29419,0.476 -0.49014,2.37595 -1.74297,4.22209 -1.25282,1.84615 -2.27786,4.12343 -2.27786,5.06064 0,0.93722 -2.02083,5.66111 -4.49075,10.49755 -2.46991,4.83644 -4.30949,8.79353 -4.08796,8.79353 0.22153,0 -0.43801,0.90249 -1.46565,2.00553 -1.02764,1.10304 -1.86844,2.36959 -1.86844,2.81456 0,0.44497 -0.51546,1.37349 -1.14546,2.06339 -0.63,0.68991 -2.17638,2.69618 -3.43638,4.4584 -1.26001,1.76222 -3.82621,4.15795 -5.70266,5.32386 -1.87646,1.1659 -3.42283,2.3844 -3.43638,2.70776 -0.0136,0.32337 -1.15453,0.87152 -2.53549,1.21812 -1.38096,0.3466 -2.75452,1.02445 -3.05235,1.50636 -0.29783,0.4819 -2.15761,1.13152 -4.13284,1.44361 -1.97523,0.31207 -3.79751,0.8344 -4.04951,1.16073 -0.88528,1.14639 -7.17097,3.70512 -9.10184,3.70512 -1.07366,0 -2.16117,0.54481 -2.41669,1.21069 -0.29309,0.76378 -1.46637,1.06365 -3.17853,0.81236 -1.62129,-0.23795 -2.71395,0.0125 -2.71395,0.62205 0,0.725 -7.6264,1.03193 -26.34561,1.06028 -15.88148,0.024 -27.98347,0.43973 -30.46927,1.04654 -2.26801,0.55366 -15.25754,1.25734 -28.86562,1.56374 -17.63547,0.39709 -25.33687,0.89682 -26.8132,1.73984 -1.37104,0.78291 -8.51252,1.43642 -21.12542,1.93317 -11.01672,0.43389 -19.87786,1.19125 -21.00684,1.79547 -1.07396,0.57476 -4.05189,1.04503 -6.61764,1.04503 -2.56574,0 -7.01149,0.82473 -9.87944,1.83273 -2.86796,1.00801 -6.33844,1.83274 -7.71216,1.83274 -1.37374,0 -2.75256,0.41237 -3.06405,0.91637 -0.31149,0.504 -1.53874,0.91637 -2.72721,0.91637 -1.18848,0 -4.1538,0.86814 -6.5896,1.92921 -2.4358,1.06105 -6.07819,2.01641 -8.0942,2.12302 -2.01601,0.1066 -4.69639,0.64819 -5.9564,1.20353 -4.00406,1.76477 -5.90798,2.39897 -7.75047,2.58169 -0.98675,0.0978 -1.94894,0.64246 -2.1382,1.21026 -0.2036,0.61081 -2.56307,1.03235 -5.7784,1.03235 -2.98886,0 -6.15033,0.36175 -7.0255,0.80388 -2.5661,1.29639 -7.99047,2.8616 -9.91716,2.8616 -2.84371,0 -17.79057,8.57431 -17.79057,10.20563 0,0.4033 -0.61854,0.49592 -1.37455,0.20581 -0.756,-0.29011 -1.37455,-0.0839 -1.37455,0.45819 0,0.5421 -0.61855,0.74828 -1.37456,0.45818 -0.756,-0.29011 -1.37455,-0.071 -1.37455,0.48694 0,0.6859 -3.33852,0.99046 -10.30915,0.94045 -8.86409,-0.0636 -11.31076,-0.43366 -17.45472,-2.64008 z"
       id="path870"
       inkscape:connector-curvature="0"
       transform="matrix(0.26458333,0,0,0.26458333,0,87)" />
    <text
       xml:space="preserve"
       style="font-style:normal;font-variant:normal;font-weight:normal;font-stretch:normal;font-size:10.58333302px;line-height:1.25;font-family:'Curlz MT';-inkscape-font-specification:'Curlz MT';letter-spacing:0px;word-spacing:0px;fill:#000000;fill-opacity:1;stroke:none;stroke-width:0.26458332"
       x="80.25293"
       y="270.81473"
       id="text874"><tspan
         sodipodi:role="line"
         id="tspan872"
         x="80.25293"
         y="270.81473"
         style="font-style:normal;font-variant:normal;font-weight:normal;font-stretch:normal;font-size:22.57777786px;font-family:'Copperplate Gothic Bold';-inkscape-font-specification:'Copperplate Gothic Bold, ';stroke-width:0.26458332">Hueso</tspan></text>
  </g>
</svg>
