<?xml version="1.0" encoding="UTF-8" standalone="no"?>
<!-- Created with Inkscape (http://www.inkscape.org/) -->

<svg
   xmlns:dc="http://purl.org/dc/elements/1.1/"
   xmlns:cc="http://creativecommons.org/ns#"
   xmlns:rdf="http://www.w3.org/1999/02/22-rdf-syntax-ns#"
   xmlns:svg="http://www.w3.org/2000/svg"
   xmlns="http://www.w3.org/2000/svg"
   xmlns:xlink="http://www.w3.org/1999/xlink"
   xmlns:sodipodi="http://sodipodi.sourceforge.net/DTD/sodipodi-0.dtd"
   xmlns:inkscape="http://www.inkscape.org/namespaces/inkscape"
   width="297mm"
   height="210mm"
   viewBox="0 0 297 210"
   version="1.1"
   id="svg8"
   inkscape:version="0.92.2 (5c3e80d, 2017-08-06)"
   sodipodi:docname="telefono.svg">
  <defs
     id="defs2">
    <linearGradient
       inkscape:collect="always"
       id="linearGradient1156">
      <stop
         style="stop-color:#000000;stop-opacity:1;"
         offset="0"
         id="stop1152" />
      <stop
         style="stop-color:#000000;stop-opacity:0;"
         offset="1"
         id="stop1154" />
    </linearGradient>
    <inkscape:path-effect
       effect="spiro"
       id="path-effect1136"
       is_visible="true" />
    <inkscape:path-effect
       effect="spiro"
       id="path-effect1122"
       is_visible="true" />
    <inkscape:path-effect
       effect="spiro"
       id="path-effect1118"
       is_visible="true" />
    <inkscape:path-effect
       effect="spiro"
       id="path-effect1114"
       is_visible="true" />
    <inkscape:path-effect
       effect="spiro"
       id="path-effect1010"
       is_visible="true" />
    <inkscape:path-effect
       effect="spiro"
       id="path-effect1006"
       is_visible="true" />
    <inkscape:path-effect
       effect="spiro"
       id="path-effect874"
       is_visible="true" />
    <inkscape:path-effect
       effect="spiro"
       id="path-effect862"
       is_visible="true" />
    <inkscape:path-effect
       effect="spiro"
       id="path-effect858"
       is_visible="true" />
    <inkscape:path-effect
       effect="spiro"
       id="path-effect854"
       is_visible="true" />
    <inkscape:path-effect
       effect="spiro"
       id="path-effect850"
       is_visible="true" />
    <inkscape:path-effect
       effect="spiro"
       id="path-effect846"
       is_visible="true" />
    <inkscape:path-effect
       effect="spiro"
       id="path-effect840"
       is_visible="true" />
    <linearGradient
       inkscape:collect="always"
       xlink:href="#linearGradient1156"
       id="linearGradient1158"
       x1="67.745103"
       y1="212.9"
       x2="299.29862"
       y2="212.9"
       gradientUnits="userSpaceOnUse" />
  </defs>
  <sodipodi:namedview
     id="base"
     pagecolor="#ffffff"
     bordercolor="#666666"
     borderopacity="1.0"
     inkscape:pageopacity="0.0"
     inkscape:pageshadow="2"
     inkscape:zoom="0.5111857"
     inkscape:cx="513.56437"
     inkscape:cy="367.14016"
     inkscape:document-units="mm"
     inkscape:current-layer="layer1"
     showgrid="false"
     inkscape:window-width="1366"
     inkscape:window-height="705"
     inkscape:window-x="-8"
     inkscape:window-y="-8"
     inkscape:window-maximized="1" />
  <metadata
     id="metadata5">
    <rdf:RDF>
      <cc:Work
         rdf:about="">
        <dc:format>image/svg+xml</dc:format>
        <dc:type
           rdf:resource="http://purl.org/dc/dcmitype/StillImage" />
        <dc:title></dc:title>
      </cc:Work>
    </rdf:RDF>
  </metadata>
  <g
     inkscape:label="Capa 1"
     inkscape:groupmode="layer"
     id="layer1"
     transform="translate(0,-87)">
    <rect
       style="opacity:1;fill:#ffd42a;fill-opacity:1;fill-rule:nonzero;stroke:none;stroke-width:1.56500006;stroke-linecap:butt;stroke-linejoin:round;stroke-miterlimit:4;stroke-dasharray:none;stroke-dashoffset:0;stroke-opacity:1;paint-order:stroke fill markers"
       id="rect1140"
       width="300.71832"
       height="214.2812"
       x="-1.5527625"
       y="86.341888" />
    <path
       style="fill:url(#linearGradient1158);stroke:none;stroke-width:0.26458332px;stroke-linecap:butt;stroke-linejoin:miter;stroke-opacity:1;fill-opacity:1"
       d="m 67.96498,261.30636 87.82886,-136.14541 77.0052,8.90213 65.84894,60.97218 0.51758,105.58784 z"
       id="path1142"
       inkscape:connector-curvature="0" />
    <path
       style="opacity:1;fill:#88aa00;fill-opacity:1;fill-rule:nonzero;stroke:#000000;stroke-width:2.56500006;stroke-linecap:butt;stroke-linejoin:round;stroke-miterlimit:4;stroke-dasharray:none;stroke-dashoffset:0;stroke-opacity:1;paint-order:stroke fill markers"
       d="m 123.33994,163.34578 h 83.9144 c 15.62977,0 12.57746,-0.38043 12.78007,0.23205 l 23.8722,72.16615 c 0.2026,0.61249 -21.0225,1.39227 -36.65227,1.39227 h -83.9144 c -15.62978,0 -56.662393,-0.55936 -56.425199,-1.16023 l 28.212598,-71.47001 c 0.237191,-0.60086 12.582821,-1.16023 28.212601,-1.16023 z"
       id="rect1012"
       inkscape:connector-curvature="0"
       sodipodi:nodetypes="sssssssss" />
    <path
       style="opacity:1;fill:#88aa00;fill-opacity:1;fill-rule:nonzero;stroke:#000000;stroke-width:2.86499977;stroke-linecap:butt;stroke-linejoin:round;stroke-miterlimit:4;stroke-dasharray:none;stroke-dashoffset:0;stroke-opacity:1;paint-order:stroke fill markers"
       d="m 215.11858,131.74262 -23.38993,-3.94477 c -26.73019,-3.08707 -77.18005,-2.56967 -95.457882,3.83257 l -15.922304,2.78455 h -8.408753 c -4.472226,17.47328 -14.224413,36.002 -8.225759,53.47528 12.301183,0.64911 12.821757,2.56486 40.031948,-2.46268 7.20488,-4.54473 1.75181,-12.34262 0,-23.57131 h 99.07488 c -3.19404,10.45591 -8.88523,22.76031 0,24.27467 17.3857,5.49743 35.30982,2.67992 42.40829,0.52772 5.82954,-17.18005 -9.43851,-35.41553 -12.43003,-52.59557 -9.99276,0 -11.30471,-1.62432 -17.68046,-2.32046 z"
       id="rect997"
       inkscape:connector-curvature="0"
       sodipodi:nodetypes="ccccccccccccc" />
    <rect
       style="opacity:1;fill:#88aa00;fill-opacity:1;fill-rule:nonzero;stroke:#000000;stroke-width:2.56500006;stroke-linecap:butt;stroke-linejoin:round;stroke-miterlimit:4;stroke-dasharray:none;stroke-dashoffset:0;stroke-opacity:1;paint-order:stroke fill markers"
       id="rect1015"
       width="175.73933"
       height="24.596821"
       x="67.964981"
       y="236.70955" />
    <ellipse
       style="opacity:1;fill:#5f8dd3;fill-opacity:1;fill-rule:nonzero;stroke:#000000;stroke-width:2.56500006;stroke-linecap:butt;stroke-linejoin:round;stroke-miterlimit:4;stroke-dasharray:none;stroke-dashoffset:0;stroke-opacity:1;paint-order:stroke fill markers"
       id="path1017"
       cx="122.58169"
       cy="183.80318"
       rx="6.1488996"
       ry="4.8729548" />
    <ellipse
       style="opacity:1;fill:#afc6e9;fill-opacity:1;fill-rule:nonzero;stroke:#000000;stroke-width:2.56500006;stroke-linecap:butt;stroke-linejoin:round;stroke-miterlimit:4;stroke-dasharray:none;stroke-dashoffset:0;stroke-opacity:1;paint-order:stroke fill markers"
       id="path1017-1"
       cx="142.95744"
       cy="184.03522"
       rx="6.1488996"
       ry="4.8729548" />
    <ellipse
       style="opacity:1;fill:#afc6e9;fill-opacity:1;fill-rule:nonzero;stroke:#000000;stroke-width:2.56500006;stroke-linecap:butt;stroke-linejoin:round;stroke-miterlimit:4;stroke-dasharray:none;stroke-dashoffset:0;stroke-opacity:1;paint-order:stroke fill markers"
       id="path1017-2"
       cx="163.93604"
       cy="183.80316"
       rx="6.1488996"
       ry="4.8729548" />
    <ellipse
       style="opacity:1;fill:#87aade;fill-opacity:1;fill-rule:nonzero;stroke:#000000;stroke-width:2.56500006;stroke-linecap:butt;stroke-linejoin:round;stroke-miterlimit:4;stroke-dasharray:none;stroke-dashoffset:0;stroke-opacity:1;paint-order:stroke fill markers"
       id="path1017-9"
       cx="182.5033"
       cy="183.10704"
       rx="6.1488996"
       ry="4.8729548" />
    <ellipse
       style="opacity:1;fill:#afc6e9;fill-opacity:1;fill-rule:nonzero;stroke:#000000;stroke-width:2.56500006;stroke-linecap:butt;stroke-linejoin:round;stroke-miterlimit:4;stroke-dasharray:none;stroke-dashoffset:0;stroke-opacity:1;paint-order:stroke fill markers"
       id="path1017-9-4"
       cx="115.28883"
       cy="199.89679"
       rx="6.1488996"
       ry="4.8729548" />
    <ellipse
       style="opacity:1;fill:#87aade;fill-opacity:1;fill-rule:nonzero;stroke:#000000;stroke-width:2.56500006;stroke-linecap:butt;stroke-linejoin:round;stroke-miterlimit:4;stroke-dasharray:none;stroke-dashoffset:0;stroke-opacity:1;paint-order:stroke fill markers"
       id="path1017-9-6"
       cx="141.58836"
       cy="198.65408"
       rx="6.1488996"
       ry="4.8729548" />
    <ellipse
       style="opacity:1;fill:#afc6e9;fill-opacity:1;fill-rule:nonzero;stroke:#000000;stroke-width:2.56500006;stroke-linecap:butt;stroke-linejoin:round;stroke-miterlimit:4;stroke-dasharray:none;stroke-dashoffset:0;stroke-opacity:1;paint-order:stroke fill markers"
       id="path1017-9-2"
       cx="167.2422"
       cy="198.88614"
       rx="6.1488996"
       ry="4.8729548" />
    <ellipse
       style="opacity:1;fill:#afc6e9;fill-opacity:1;fill-rule:nonzero;stroke:#000000;stroke-width:2.56500006;stroke-linecap:butt;stroke-linejoin:round;stroke-miterlimit:4;stroke-dasharray:none;stroke-dashoffset:0;stroke-opacity:1;paint-order:stroke fill markers"
       id="path1017-9-5"
       cx="190.04129"
       cy="197.80069"
       rx="6.1488996"
       ry="4.8729548" />
    <ellipse
       style="opacity:1;fill:#afc6e9;fill-opacity:1;fill-rule:nonzero;stroke:#000000;stroke-width:2.56500006;stroke-linecap:butt;stroke-linejoin:round;stroke-miterlimit:4;stroke-dasharray:none;stroke-dashoffset:0;stroke-opacity:1;paint-order:stroke fill markers"
       id="path1017-9-7"
       cx="108.96452"
       cy="216.95598"
       rx="6.1488996"
       ry="4.8729548" />
    <ellipse
       style="opacity:1;fill:#87aade;fill-opacity:1;fill-rule:nonzero;stroke:#000000;stroke-width:2.56500006;stroke-linecap:butt;stroke-linejoin:round;stroke-miterlimit:4;stroke-dasharray:none;stroke-dashoffset:0;stroke-opacity:1;paint-order:stroke fill markers"
       id="path1017-9-7-0"
       cx="138.44562"
       cy="216.52928"
       rx="6.1488996"
       ry="4.8729548" />
    <ellipse
       style="opacity:1;fill:#87aade;fill-opacity:1;fill-rule:nonzero;stroke:#000000;stroke-width:2.56500006;stroke-linecap:butt;stroke-linejoin:round;stroke-miterlimit:4;stroke-dasharray:none;stroke-dashoffset:0;stroke-opacity:1;paint-order:stroke fill markers"
       id="path1017-9-7-5"
       cx="168.09018"
       cy="216.33464"
       rx="6.1488996"
       ry="4.8729548" />
    <ellipse
       style="opacity:1;fill:#afc6e9;fill-opacity:1;fill-rule:nonzero;stroke:#000000;stroke-width:2.56500006;stroke-linecap:butt;stroke-linejoin:round;stroke-miterlimit:4;stroke-dasharray:none;stroke-dashoffset:0;stroke-opacity:1;paint-order:stroke fill markers"
       id="path1017-9-7-58"
       cx="195.68108"
       cy="215.90791"
       rx="6.1488996"
       ry="4.8729548" />
    <path
       style="fill:none;stroke:#000000;stroke-width:1.16499996;stroke-linecap:butt;stroke-linejoin:miter;stroke-miterlimit:4;stroke-dasharray:none;stroke-opacity:1"
       d="m 61.454388,176.37771 45.333062,-3.94476"
       id="path1112"
       inkscape:connector-curvature="0"
       inkscape:path-effect="#path-effect1114"
       inkscape:original-d="m 61.454388,176.37771 45.333062,-3.94476" />
    <path
       style="fill:none;stroke:#000000;stroke-width:1.56500006;stroke-linecap:butt;stroke-linejoin:miter;stroke-miterlimit:4;stroke-dasharray:none;stroke-opacity:1"
       d="m 197.45387,174.98544 50.15544,0.69614"
       id="path1116"
       inkscape:connector-curvature="0"
       inkscape:path-effect="#path-effect1118"
       inkscape:original-d="m 197.45387,174.98544 50.15544,0.69614" />
    <path
       style="opacity:1;fill:#005500;fill-opacity:1;fill-rule:nonzero;stroke:#000000;stroke-width:1.56499994;stroke-linecap:butt;stroke-linejoin:round;stroke-miterlimit:4;stroke-dasharray:none;stroke-dashoffset:0;stroke-opacity:1;paint-order:stroke fill markers"
       d="m 74.375178,188.6779 c -0.265246,-0.0474 -2.781032,-0.26697 -5.590636,-0.48785 l -5.10837,-0.4016 -0.497515,-1.77431 c -0.680762,-2.42786 -1.25852,-6.30587 -1.172458,-7.86974 l 0.07118,-1.29343 4.702102,-0.40048 c 2.586153,-0.22026 12.509436,-1.08201 22.051735,-1.915 13.112764,-1.14467 17.392774,-1.44736 17.526284,-1.23948 0.3213,0.50028 0.93337,4.21808 0.93286,5.66641 -2.2e-4,0.783 -0.18306,1.96764 -0.4062,2.63253 -0.45652,1.36023 -2.10192,3.28353 -3.1447,3.6758 -1.27479,0.47955 -12.647845,2.33231 -18.031017,2.93739 -3.038133,0.3415 -10.354721,0.64477 -11.333265,0.46976 z"
       id="path1124"
       inkscape:connector-curvature="0" />
    <path
       style="opacity:1;fill:#005500;fill-opacity:1;fill-rule:nonzero;stroke:#000000;stroke-width:1.56499994;stroke-linecap:butt;stroke-linejoin:round;stroke-miterlimit:4;stroke-dasharray:none;stroke-dashoffset:0;stroke-opacity:1;paint-order:stroke fill markers"
       d="m 217.97007,189.00452 c -4.96376,-0.43095 -10.00559,-1.39489 -15.03389,-2.87431 -3.89533,-1.14608 -4.89226,-2.64916 -4.67931,-7.05501 0.0655,-1.35553 0.2057,-2.66415 0.31152,-2.90804 0.21017,-0.48439 -0.29305,-0.48462 36.58242,0.0174 l 11.27299,0.15346 -0.002,2.34074 c -0.002,2.50444 -0.27262,4.56578 -0.87442,6.65955 l -0.3743,1.30222 -1.36408,0.36364 c -2.15374,0.57414 -6.10457,1.29317 -9.28882,1.69052 -3.51808,0.43901 -13.01472,0.61681 -16.55019,0.30987 z"
       id="path1126"
       inkscape:connector-curvature="0" />
    <path
       style="opacity:1;fill:#005500;fill-opacity:1;fill-rule:nonzero;stroke:#000000;stroke-width:1.56500006;stroke-linecap:butt;stroke-linejoin:round;stroke-miterlimit:4;stroke-dasharray:none;stroke-dashoffset:0;stroke-opacity:1;paint-order:stroke fill markers"
       d="m 67.985146,249.00878 v -12.18239 h 87.869664 87.86967 v 12.18239 12.18238 H 155.85481 67.985146 Z"
       id="path1128"
       inkscape:connector-curvature="0" />
    <path
       style="opacity:1;fill:#8dd35f;fill-opacity:1;fill-rule:nonzero;stroke:none;stroke-width:1.56500006;stroke-linecap:butt;stroke-linejoin:round;stroke-miterlimit:4;stroke-dasharray:none;stroke-dashoffset:0;stroke-opacity:1;paint-order:stroke fill markers"
       d="m 212.10506,144.8433 c -0.66312,-0.36731 -1.38303,-0.74943 -1.59982,-0.84915 -0.8269,-0.38037 -6.51328,-5.40233 -6.11707,-5.40233 0.10777,0 0.0328,-0.18274 -0.16649,-0.40609 -0.19933,-0.22333 -0.42048,-0.56556 -0.49147,-0.7605 -0.21383,-0.58726 -5.78988,-3.01023 -6.92754,-3.01023 -0.25016,0 -0.76157,-0.24649 -1.13645,-0.54776 -0.3749,-0.30127 -1.03428,-0.61452 -1.46531,-0.69614 -0.43102,-0.0816 -1.13634,-0.2133 -1.56737,-0.29266 -0.43102,-0.0794 -0.98495,-0.3143 -1.23094,-0.5221 -0.40648,-0.34337 -2.83135,-0.38273 -26.59418,-0.43164 -22.91268,-0.0472 -26.16389,-0.0113 -26.28406,0.29006 -0.0754,0.18913 -0.42391,0.3523 -0.77444,0.36258 -0.35053,0.0103 -1.07136,0.26766 -1.60186,0.57193 -0.53048,0.30428 -1.29869,0.70751 -1.70712,0.89608 -0.40842,0.18856 -0.88288,0.5055 -1.05434,0.70431 -0.17147,0.19881 -0.4341,0.36295 -0.58364,0.36475 -0.14954,0.002 -0.75147,0.41948 -1.33763,0.92818 -0.58614,0.5087 -1.13585,0.92491 -1.22154,0.92491 -0.0857,0 -0.39718,0.41326 -0.69218,0.91836 -0.295,0.5051 -1.02382,1.49421 -1.61959,2.19802 l -1.08324,1.27967 -15.84669,0.0644 c -15.795188,0.0642 -15.849903,0.066 -16.83652,0.57405 -0.544407,0.28031 -1.575254,0.57877 -2.290766,0.66324 -0.715512,0.0845 -2.108066,0.35113 -3.094564,0.59257 -0.986495,0.24144 -2.451381,0.44128 -3.255299,0.44408 -0.980316,0.003 -1.81901,0.16753 -2.546769,0.49835 -1.303325,0.59246 -3.765361,0.85043 -9.861031,1.03324 -4.245327,0.12732 -4.428074,0.11464 -4.261628,-0.29575 0.345894,-0.85283 2.756713,-8.84289 2.91842,-9.67238 l 0.165779,-0.85037 h 4.141171 c 4.013352,0 4.387259,-0.043 12.114161,-1.39079 4.385147,-0.76494 8.667485,-1.60453 9.516308,-1.86575 11.995398,-3.69157 37.345738,-5.65195 65.618138,-5.07434 17.42104,0.35592 24.06171,0.96242 40.3359,3.68393 6.76379,1.13109 12.7861,2.1271 13.38291,2.21335 0.5968,0.0863 2.18319,0.40264 3.52531,0.70309 1.34212,0.30045 3.00562,0.61846 3.69665,0.70667 l 1.25643,0.16038 -0.50021,0.48975 c -1.33859,1.31053 -3.39665,4.45123 -3.39665,5.18341 0,0.64376 -1.79271,2.35948 -3.19839,3.06104 -0.36286,0.1811 -0.65975,0.40861 -0.65975,0.50558 0,0.097 -0.37798,0.56199 -0.83996,1.03337 -0.46199,0.47139 -0.78188,0.94752 -0.71088,1.05807 0.071,0.11056 -0.0219,0.14524 -0.2065,0.0771 -0.18458,-0.0682 -0.47477,0.0374 -0.64488,0.2347 -0.47665,0.55268 -1.9112,0.39832 -3.26441,-0.35125 z"
       id="path1138"
       inkscape:connector-curvature="0" />
  </g>
</svg>
