<?xml version="1.0" encoding="UTF-8" standalone="no"?>
<!-- Created with Inkscape (http://www.inkscape.org/) -->

<svg
   xmlns:dc="http://purl.org/dc/elements/1.1/"
   xmlns:cc="http://creativecommons.org/ns#"
   xmlns:rdf="http://www.w3.org/1999/02/22-rdf-syntax-ns#"
   xmlns:svg="http://www.w3.org/2000/svg"
   xmlns="http://www.w3.org/2000/svg"
   xmlns:sodipodi="http://sodipodi.sourceforge.net/DTD/sodipodi-0.dtd"
   xmlns:inkscape="http://www.inkscape.org/namespaces/inkscape"
   width="297mm"
   height="210mm"
   viewBox="0 0 297 210"
   version="1.1"
   id="svg8"
   inkscape:version="0.92.2 (5c3e80d, 2017-08-06)"
   sodipodi:docname="tierra.svg">
  <defs
     id="defs2">
    <inkscape:path-effect
       effect="spiro"
       id="path-effect974"
       is_visible="true" />
    <inkscape:path-effect
       effect="spiro"
       id="path-effect970"
       is_visible="true" />
    <inkscape:path-effect
       effect="spiro"
       id="path-effect962"
       is_visible="true" />
    <inkscape:path-effect
       effect="spiro"
       id="path-effect958"
       is_visible="true" />
    <inkscape:path-effect
       effect="spiro"
       id="path-effect908"
       is_visible="true" />
    <inkscape:path-effect
       effect="spiro"
       id="path-effect904"
       is_visible="true" />
    <inkscape:path-effect
       effect="spiro"
       id="path-effect868"
       is_visible="true" />
    <inkscape:path-effect
       effect="spiro"
       id="path-effect1010"
       is_visible="true" />
    <inkscape:path-effect
       effect="spiro"
       id="path-effect1006"
       is_visible="true" />
    <inkscape:path-effect
       effect="spiro"
       id="path-effect874"
       is_visible="true" />
    <inkscape:path-effect
       effect="spiro"
       id="path-effect862"
       is_visible="true" />
    <inkscape:path-effect
       effect="spiro"
       id="path-effect858"
       is_visible="true" />
    <inkscape:path-effect
       effect="spiro"
       id="path-effect854"
       is_visible="true" />
    <inkscape:path-effect
       effect="spiro"
       id="path-effect850"
       is_visible="true" />
    <inkscape:path-effect
       effect="spiro"
       id="path-effect846"
       is_visible="true" />
    <inkscape:path-effect
       effect="spiro"
       id="path-effect840"
       is_visible="true" />
  </defs>
  <sodipodi:namedview
     id="base"
     pagecolor="#ffffff"
     bordercolor="#666666"
     borderopacity="1.0"
     inkscape:pageopacity="0.0"
     inkscape:pageshadow="2"
     inkscape:zoom="0.54563172"
     inkscape:cx="604.5459"
     inkscape:cy="489.56591"
     inkscape:document-units="mm"
     inkscape:current-layer="layer1"
     showgrid="false"
     inkscape:window-width="1366"
     inkscape:window-height="705"
     inkscape:window-x="-8"
     inkscape:window-y="-8"
     inkscape:window-maximized="1"
     showguides="false" />
  <metadata
     id="metadata5">
    <rdf:RDF>
      <cc:Work
         rdf:about="">
        <dc:format>image/svg+xml</dc:format>
        <dc:type
           rdf:resource="http://purl.org/dc/dcmitype/StillImage" />
        <dc:title></dc:title>
      </cc:Work>
    </rdf:RDF>
  </metadata>
  <g
     inkscape:label="Capa 1"
     inkscape:groupmode="layer"
     id="layer1"
     transform="translate(0,-87)">
    <rect
       style="opacity:1;fill:#162d50;fill-opacity:1;fill-rule:nonzero;stroke:none;stroke-width:0.26499999;stroke-linecap:butt;stroke-linejoin:miter;stroke-miterlimit:4;stroke-dasharray:none;stroke-dashoffset:0;stroke-opacity:1;paint-order:stroke fill markers"
       id="rect1006"
       width="296.76608"
       height="212.39142"
       x="0.48491201"
       y="87.033134" />
    <ellipse
       style="opacity:1;fill:#5599ff;fill-opacity:1;fill-rule:nonzero;stroke:none;stroke-width:3.0999999;stroke-linecap:butt;stroke-linejoin:round;stroke-miterlimit:4;stroke-dasharray:none;stroke-dashoffset:0;stroke-opacity:1;paint-order:stroke fill markers"
       id="path938"
       cx="149.35287"
       cy="202.68462"
       rx="64.978203"
       ry="65.220657" />
    <path
       style="opacity:1;fill:#008000;fill-opacity:1;fill-rule:nonzero;stroke:none;stroke-width:0.26499999;stroke-linecap:butt;stroke-linejoin:miter;stroke-miterlimit:4;stroke-dasharray:none;stroke-dashoffset:0;stroke-opacity:1;paint-order:stroke fill markers"
       d="m 143.22371,261.83584 c -0.46752,-0.12331 -1.16123,-1.2448 -1.61493,-2.61076 -0.43745,-1.31703 -0.95514,-2.3946 -1.15044,-2.3946 -0.19528,0 -0.83822,-1.10652 -1.42875,-2.45893 -0.59052,-1.35241 -1.28837,-2.71622 -1.55078,-3.0307 -0.2624,-0.31447 -1.12592,-1.3355 -1.91891,-2.26896 -0.793,-0.93345 -1.4453,-1.86274 -1.44956,-2.06509 -0.008,-0.3719 -3.70245,-4.595 -7.5264,-8.60297 -1.14505,-1.20016 -2.62083,-3.16405 -3.27951,-4.36421 -0.65867,-1.20015 -1.64427,-2.38961 -2.1902,-2.64323 -0.54594,-0.25362 -1.09688,-1.01736 -1.22433,-1.69719 -0.76011,-4.0547 -2.06516,-7.13802 -3.57667,-8.45022 -0.88391,-0.76737 -1.60711,-1.83766 -1.60711,-2.37842 0,-1.07772 3.27513,-4.45522 4.78483,-4.93438 0.52104,-0.16537 1.26872,-0.78314 1.6615,-1.37282 0.39278,-0.58968 1.4488,-1.43041 2.34671,-1.86829 2.68756,-1.31064 5.50341,-2.52236 5.63817,-2.42623 0.0695,0.0495 0.8332,-0.28428 1.69719,-0.74186 0.86399,-0.45758 1.78909,-0.87527 2.05579,-0.9282 0.26671,-0.0529 1.97626,-0.79146 3.79901,-1.64118 2.72052,-1.26823 3.45485,-1.86369 4.09998,-3.3246 1.4476,-3.27815 1.41704,-3.31008 -3.48298,-3.63987 -3.86859,-0.26038 -10.58965,-1.6743 -11.94733,-2.51339 -0.71139,-0.43966 -0.56234,-1.97711 0.25765,-2.65763 0.40005,-0.33202 0.72736,-0.90426 0.72736,-1.27166 0,-0.36739 0.17058,-0.66799 0.37905,-0.66799 0.20848,0 0.68371,-1.0318 1.05606,-2.29289 0.37236,-1.26109 0.96418,-2.84312 1.31516,-3.51561 0.35098,-0.6725 0.63949,-1.70082 0.64113,-2.28516 0.002,-0.58434 0.24879,-1.21435 0.54922,-1.40002 1.04633,-0.64667 0.17752,-5.76829 -1.32489,-7.81022 -2.17855,-2.96088 -6.1107,-6.45679 -7.26249,-6.45679 -0.57939,0 -1.32508,-0.32731 -1.65709,-0.72736 -0.33201,-0.40005 -0.94332,-0.72737 -1.35846,-0.72737 -1.13395,0 -3.97557,-1.10943 -3.97557,-1.55215 0,-0.21312 -0.26083,-0.3875 -0.57961,-0.3875 -0.31878,0 -1.19162,-0.58635 -1.93965,-1.303 -1.32592,-1.27032 -1.36004,-1.43453 -1.36004,-6.54631 0,-6.09015 -0.0906,-5.93348 5.27766,-9.12272 24.93593,-14.81417 56.7286,-11.33714 77.55498,8.48186 4.92761,4.68925 9.05612,9.73909 8.32942,10.18822 -0.27464,0.16974 -0.35296,0.54546 -0.17406,0.83494 0.18007,0.29135 0.1024,0.38857 -0.17397,0.21777 -0.27459,-0.1697 -1.37147,0.32327 -2.43752,1.09551 -1.06603,0.77224 -2.45711,1.47745 -3.09127,1.56714 -0.63416,0.0897 -1.15409,0.49039 -1.1554,0.89045 -0.001,0.50082 -0.40255,0.68069 -1.28719,0.5775 -0.70665,-0.0824 -1.44848,0.11495 -1.64851,0.43861 -0.24697,0.39961 -0.15997,0.46256 0.27107,0.19617 0.42317,-0.26154 0.51779,-0.20306 0.28387,0.17544 -0.19299,0.31226 -0.57728,0.42783 -0.85397,0.25682 -0.5784,-0.35747 -4.27902,0.75693 -4.27902,1.28858 0,0.19433 -0.78198,0.50003 -1.73772,0.67933 -1.20652,0.22634 -1.65877,0.53175 -1.47944,0.99909 0.16887,0.44005 0.015,0.57974 -0.44438,0.40346 -0.38647,-0.14831 -0.70267,-0.005 -0.70267,0.31903 0,0.32377 -0.31104,0.46931 -0.69119,0.32344 -0.84573,-0.32454 -4.26395,0.56642 -3.9758,1.03629 0.11382,0.1856 -1.11025,0.40631 -2.72017,0.49047 -1.60992,0.0841 -3.38859,0.44505 -3.95261,0.80199 -0.56401,0.35695 -1.95288,0.79825 -3.08636,0.98067 -1.13348,0.18242 -2.06087,0.50282 -2.06087,0.71199 0,0.20917 -0.87285,0.51989 -1.93965,0.69048 -1.06681,0.17059 -1.93965,0.5159 -1.93965,0.76737 0,0.25146 -0.76183,0.60013 -1.69295,0.77481 -0.99708,0.18705 -1.56424,0.52585 -1.37981,0.82426 0.17222,0.27867 0.10259,0.37654 -0.15474,0.21751 -0.63467,-0.39226 -4.57826,0.64051 -4.28119,1.12118 0.12999,0.21033 -0.2345,0.25929 -0.80997,0.1088 -0.7795,-0.20384 -0.94605,-0.11137 -0.65312,0.3626 0.24677,0.39928 0.20326,0.51883 -0.11682,0.32101 -0.70439,-0.43534 -3.56413,0.18514 -3.2436,0.70376 0.14287,0.23118 -0.11467,0.27663 -0.57233,0.10102 -0.48124,-0.18467 -0.71067,-0.12283 -0.54411,0.14666 0.17163,0.27771 -0.41074,0.38441 -1.44137,0.26409 -0.95115,-0.11104 -1.60883,-0.007 -1.46151,0.23149 0.14731,0.23836 -0.61538,0.34916 -1.69487,0.24621 -1.1932,-0.11379 -1.84838,-0.002 -1.67108,0.28471 0.17151,0.27751 -0.20169,0.37758 -0.90596,0.24295 -0.67845,-0.12969 -1.19761,-7.9e-4 -1.19761,0.29729 0,0.28942 -0.32731,0.40062 -0.72737,0.2471 -0.40005,-0.15351 -0.72736,-0.0444 -0.72736,0.24246 0,0.28686 -0.32732,0.39597 -0.72737,0.24246 -0.40005,-0.15352 -0.72737,-0.0618 -0.72737,0.20379 0,0.2656 -0.38187,0.45261 -0.8486,0.41557 -0.56804,-0.0451 -0.89559,0.33486 -0.99075,1.14924 -0.1076,0.92091 0.2165,1.42845 1.33351,2.08829 0.81162,0.47944 1.47901,0.6957 1.48309,0.4806 0.004,-0.21511 0.16774,-0.15699 0.36368,0.12913 0.48686,0.71095 6.62381,3.64079 7.81391,3.73045 0.52862,0.0398 0.85426,0.24531 0.72364,0.45665 -0.13061,0.21133 -0.006,0.38424 0.27605,0.38424 0.31353,0 0.51642,1.36921 0.52096,3.51562 0.004,1.93358 0.16774,3.73382 0.36368,4.00052 0.79779,1.08589 2.67031,1.69719 5.1988,1.69719 1.47048,0 2.67359,0.19393 2.67359,0.43095 0,0.23702 0.75452,0.57249 1.67671,0.7455 2.29593,0.43071 4.29848,1.53306 4.4315,2.43939 0.0608,0.41415 -0.0673,0.64311 -0.28459,0.5088 -0.54297,-0.33558 -1.45941,2.45241 -1.45941,4.43982 0,0.89703 -0.41764,3.13809 -0.92809,4.98012 -0.51046,1.84204 -0.78322,3.5304 -0.60614,3.75193 0.17707,0.22153 0.1289,0.24609 -0.10706,0.0546 -0.52338,-0.42478 -3.23563,3.55403 -3.33663,4.89476 -0.0399,0.5295 -0.24543,0.85587 -0.45677,0.72525 -0.32029,-0.19794 -0.47048,4.55421 -0.60989,19.29783 -0.009,0.97832 -0.21571,1.74206 -0.4588,1.69719 -0.24309,-0.0449 -0.57041,0.40271 -0.72737,0.99463 -0.33083,1.24762 -3.31316,4.98518 -3.97785,4.98518 -0.83766,0 -4.29457,2.53984 -4.03298,2.96309 0.14282,0.2311 -0.0622,0.29665 -0.45568,0.14568 -0.79485,-0.30502 -1.98903,1.46168 -1.51092,2.23528 0.16143,0.26119 0.22607,0.44958 0.14365,0.41864 -0.0824,-0.0309 -0.51865,-0.15352 -0.96942,-0.27242 z"
       id="path964"
       inkscape:connector-curvature="0" />
    <path
       style="opacity:1;fill:#008000;fill-opacity:1;fill-rule:nonzero;stroke:none;stroke-width:0.26499999;stroke-linecap:butt;stroke-linejoin:miter;stroke-miterlimit:4;stroke-dasharray:none;stroke-dashoffset:0;stroke-opacity:1;paint-order:stroke fill markers"
       d="m 140.04277,267.16704 c -1.29857,-0.26287 -1.27542,-0.11974 -0.32685,-2.02121 0.8972,-1.79848 2.63018,-2.97531 2.63018,-1.7861 0,0.40944 0.19486,0.74443 0.43303,0.74443 0.23817,0 0.56298,0.33865 0.72181,0.75256 0.1656,0.43153 0.0843,0.62617 -0.19057,0.45629 -0.26365,-0.16295 -0.47936,-0.0652 -0.47936,0.21727 0,0.28244 0.3455,0.51353 0.76778,0.51353 0.42228,0 0.67823,0.27276 0.56879,0.60614 -0.20851,0.63517 -2.26685,0.89321 -4.12481,0.51709 z"
       id="path966"
       inkscape:connector-curvature="0" />
    <path
       style="opacity:1;fill:#008000;fill-opacity:1;fill-rule:nonzero;stroke:none;stroke-width:0.26499999;stroke-linecap:butt;stroke-linejoin:miter;stroke-miterlimit:4;stroke-dasharray:none;stroke-dashoffset:0;stroke-opacity:1;paint-order:stroke fill markers"
       d="m 97.854923,242.2328 c -5.243285,-6.73913 -9.532983,-15.8734 -11.818202,-25.1651 -0.997572,-4.05612 -1.132234,-5.76568 -1.126781,-14.3049 0.0053,-8.28526 0.162091,-10.36279 1.076251,-14.25955 0.588533,-2.50872 1.200173,-4.69082 1.359201,-4.84912 0.159025,-0.15829 0.687202,0.20317 1.173721,0.80325 0.486521,0.60007 1.238324,1.09105 1.670669,1.09105 0.43235,0 0.916503,0.33986 1.075899,0.75523 0.159398,0.41538 0.600303,0.63609 0.979792,0.49047 0.379486,-0.14562 0.571942,-0.0738 0.427675,0.15964 -0.386834,0.62592 1.043128,1.64704 1.72035,1.2285 0.337727,-0.20873 0.454419,-0.15419 0.278643,0.13022 -0.411744,0.66622 1.726748,2.60271 2.978312,2.69699 0.556577,0.0419 0.922607,0.16558 0.8134,0.27479 -0.470122,0.47012 1.196573,1.48474 2.140377,1.30298 0.56935,-0.10965 0.92768,-0.0255 0.79631,0.18712 -0.13137,0.21257 0.35377,0.66304 1.0781,1.00105 0.72433,0.33802 1.7077,0.81472 2.18528,1.05934 0.47758,0.24462 1.08306,0.31205 1.34552,0.14983 0.26246,-0.1622 0.43715,-0.11504 0.38821,0.10481 -0.049,0.21985 0.0812,0.78972 0.28925,1.26638 0.24483,0.56097 0.10095,1.17307 -0.40793,1.73538 -0.4324,0.47779 -0.78618,1.19241 -0.78618,1.58805 0,0.39563 -0.43642,1.62261 -0.96982,2.72663 -0.53341,1.10402 -0.96983,2.23902 -0.96983,2.52222 0,0.60351 -0.92318,2.32404 -1.89808,3.53744 -0.37719,0.46946 -0.7612,1.54229 -0.85335,2.38405 -0.0922,0.84177 -0.48777,2.17239 -0.879156,2.95694 -0.534633,1.07169 -0.581716,1.66916 -0.189323,2.40235 0.387309,0.7237 0.378199,0.88685 -0.03528,0.63131 -0.403092,-0.24913 -0.517252,0.50713 -0.412062,2.72972 0.08466,1.7889 0.356574,3.03775 0.650325,2.98686 0.302056,-0.0523 0.423726,0.60727 0.302906,1.64215 -0.11105,0.95128 -0.01,1.611 0.22454,1.46604 0.23455,-0.14496 0.42555,0.31623 0.42446,1.02487 -0.001,0.70864 0.18325,4.27456 0.40967,7.92427 0.40956,6.60192 0.14745,10.57854 -0.69725,10.57854 -0.24353,0 -1.479068,-1.33191 -2.74562,-2.9598 z"
       id="path976"
       inkscape:connector-curvature="0" />
    <path
       style="opacity:1;fill:#008000;fill-opacity:1;fill-rule:nonzero;stroke:none;stroke-width:0.26499999;stroke-linecap:butt;stroke-linejoin:miter;stroke-miterlimit:4;stroke-dasharray:none;stroke-dashoffset:0;stroke-opacity:1;paint-order:stroke fill markers"
       d="m 195.3339,245.81293 c -0.76405,-1.17244 -0.85161,-2.52204 -0.78649,-12.1228 0.0682,-10.05957 0.0139,-10.80348 -0.78922,-10.80348 -0.47438,0 -1.13415,-0.32732 -1.46616,-0.72737 -0.33202,-0.40005 -0.95881,-0.73243 -1.39289,-0.73862 -0.43407,-0.006 -1.6316,-0.76992 -2.66118,-1.69719 -1.02958,-0.92727 -2.17518,-1.68594 -2.54579,-1.68594 -0.52971,0 -0.67382,-1.02515 -0.67382,-4.79335 0,-4.55957 0.0583,-4.83155 1.19522,-5.57649 0.65737,-0.43073 1.39446,-0.78314 1.63797,-0.78314 0.24351,0 1.28769,-0.35898 2.32039,-0.79774 1.0327,-0.43877 2.42317,-0.85955 3.08992,-0.93508 2.52963,-0.28655 5.61653,-1.01962 6.64783,-1.5787 1.14093,-0.61852 3.19509,-3.16102 3.69085,-4.5683 0.16442,-0.46672 0.524,-0.84859 0.79908,-0.84859 0.27507,0 0.50013,-0.41793 0.50013,-0.92872 0,-0.5108 0.65463,-1.54659 1.45473,-2.30176 0.80011,-0.75517 1.45474,-1.53929 1.45474,-1.74249 0,-0.2032 0.60008,-1.05261 1.33351,-1.88758 2.90371,-3.30569 3.34448,-3.5113 3.74438,-1.74664 1.29364,5.70862 1.62496,16.16085 0.70797,22.33429 -1.21716,8.19424 -4.37386,17.13872 -8.4918,24.06145 -2.47902,4.16752 -7.81299,11.18755 -8.50054,11.18755 -0.22498,0 -0.79595,-0.59369 -1.26883,-1.31931 z"
       id="path978"
       inkscape:connector-curvature="0" />
    <path
       sodipodi:type="star"
       style="opacity:1;fill:#ffdd55;fill-opacity:1;fill-rule:nonzero;stroke:none;stroke-width:0.38455898;stroke-linecap:butt;stroke-linejoin:miter;stroke-miterlimit:4;stroke-dasharray:none;stroke-dashoffset:0;stroke-opacity:1;paint-order:stroke fill markers"
       id="path1008"
       sodipodi:sides="5"
       sodipodi:cx="334.58923"
       sodipodi:cy="188.37973"
       sodipodi:r1="30.718321"
       sodipodi:r2="18.43099"
       sodipodi:arg1="1.3641131"
       sodipodi:arg2="1.9924316"
       inkscape:flatsided="false"
       inkscape:rounded="0.11"
       inkscape:randomized="0"
       d="m 340.89309,218.44427 c -2.06311,0.43259 -11.92344,-12.38502 -13.8468,-13.24772 -1.92336,-0.86269 -18.05318,0.29741 -19.10214,-1.53104 -1.04895,-1.82846 8.09432,-15.16705 8.32044,-17.26286 0.22612,-2.09581 -5.8616,-17.07769 -4.44678,-18.64033 1.41483,-1.56264 16.926,3.01128 18.98911,2.57869 2.06311,-0.43259 14.43052,-10.85201 16.35388,-9.98932 1.92336,0.8627 2.36653,17.02812 3.41548,18.85657 1.04895,1.82846 14.78015,10.37079 14.55403,12.4666 -0.22612,2.09581 -15.4634,7.51268 -16.87823,9.07532 -1.41482,1.56263 -5.29588,17.2615 -7.35899,17.69409 z"
       inkscape:transform-center-x="2.0512669"
       inkscape:transform-center-y="3.0917813"
       transform="matrix(0.68673133,0,0,0.69147889,-26.239708,-12.127592)" />
    <path
       sodipodi:type="star"
       style="opacity:1;fill:#ffdd55;fill-opacity:1;fill-rule:nonzero;stroke:none;stroke-width:0.6122086;stroke-linecap:butt;stroke-linejoin:miter;stroke-miterlimit:4;stroke-dasharray:none;stroke-dashoffset:0;stroke-opacity:1;paint-order:stroke fill markers"
       id="path1008-5"
       sodipodi:sides="5"
       sodipodi:cx="334.58923"
       sodipodi:cy="188.37973"
       sodipodi:r1="30.718321"
       sodipodi:r2="18.43099"
       sodipodi:arg1="1.3641131"
       sodipodi:arg2="1.9924316"
       inkscape:flatsided="false"
       inkscape:rounded="0.11"
       inkscape:randomized="0"
       d="m 340.89309,218.44427 c -2.06311,0.43259 -11.92344,-12.38502 -13.8468,-13.24772 -1.92336,-0.86269 -18.05318,0.29741 -19.10214,-1.53104 -1.04895,-1.82846 8.09432,-15.16705 8.32044,-17.26286 0.22612,-2.09581 -5.8616,-17.07769 -4.44678,-18.64033 1.41483,-1.56264 16.926,3.01128 18.98911,2.57869 2.06311,-0.43259 14.43052,-10.85201 16.35388,-9.98932 1.92336,0.8627 2.36653,17.02812 3.41548,18.85657 1.04895,1.82846 14.78015,10.37079 14.55403,12.4666 -0.22612,2.09581 -15.4634,7.51268 -16.87823,9.07532 -1.41482,1.56263 -5.29588,17.2615 -7.35899,17.69409 z"
       inkscape:transform-center-x="-42.096582"
       inkscape:transform-center-y="32.907359"
       transform="matrix(0.4327297,0,0,0.43298823,110.42138,33.40205)" />
    <path
       sodipodi:type="star"
       style="opacity:1;fill:#ffdd55;fill-opacity:1;fill-rule:nonzero;stroke:none;stroke-width:0.59743536;stroke-linecap:butt;stroke-linejoin:miter;stroke-miterlimit:4;stroke-dasharray:none;stroke-dashoffset:0;stroke-opacity:1;paint-order:stroke fill markers"
       id="path1008-8"
       sodipodi:sides="5"
       sodipodi:cx="334.58923"
       sodipodi:cy="188.37973"
       sodipodi:r1="30.718321"
       sodipodi:r2="18.43099"
       sodipodi:arg1="1.3641131"
       sodipodi:arg2="1.9924316"
       inkscape:flatsided="false"
       inkscape:rounded="0.11"
       inkscape:randomized="0"
       d="m 340.89309,218.44427 c -2.06311,0.43259 -11.92344,-12.38502 -13.8468,-13.24772 -1.92336,-0.86269 -18.05318,0.29741 -19.10214,-1.53104 -1.04895,-1.82846 8.09432,-15.16705 8.32044,-17.26286 0.22612,-2.09581 -5.8616,-17.07769 -4.44678,-18.64033 1.41483,-1.56264 16.926,3.01128 18.98911,2.57869 2.06311,-0.43259 14.43052,-10.85201 16.35388,-9.98932 1.92336,0.8627 2.36653,17.02812 3.41548,18.85657 1.04895,1.82846 14.78015,10.37079 14.55403,12.4666 -0.22612,2.09581 -15.4634,7.51268 -16.87823,9.07532 -1.41482,1.56263 -5.29588,17.2615 -7.35899,17.69409 z"
       inkscape:transform-center-x="1.2166935"
       inkscape:transform-center-y="2.1597018"
       transform="matrix(0.40732954,0,0,0.48301867,-101.90894,23.442473)" />
    <path
       sodipodi:type="star"
       style="opacity:1;fill:#ffdd55;fill-opacity:1;fill-rule:nonzero;stroke:none;stroke-width:0.38455898;stroke-linecap:butt;stroke-linejoin:miter;stroke-miterlimit:4;stroke-dasharray:none;stroke-dashoffset:0;stroke-opacity:1;paint-order:stroke fill markers"
       id="path1008-2"
       sodipodi:sides="5"
       sodipodi:cx="334.58923"
       sodipodi:cy="188.37973"
       sodipodi:r1="30.718321"
       sodipodi:r2="18.43099"
       sodipodi:arg1="1.3641131"
       sodipodi:arg2="1.9924316"
       inkscape:flatsided="false"
       inkscape:rounded="0.11"
       inkscape:randomized="0"
       d="m 340.89309,218.44427 c -2.06311,0.43259 -11.92344,-12.38502 -13.8468,-13.24772 -1.92336,-0.86269 -18.05318,0.29741 -19.10214,-1.53104 -1.04895,-1.82846 8.09432,-15.16705 8.32044,-17.26286 0.22612,-2.09581 -5.8616,-17.07769 -4.44678,-18.64033 1.41483,-1.56264 16.926,3.01128 18.98911,2.57869 2.06311,-0.43259 14.43052,-10.85201 16.35388,-9.98932 1.92336,0.8627 2.36653,17.02812 3.41548,18.85657 1.04895,1.82846 14.78015,10.37079 14.55403,12.4666 -0.22612,2.09581 -15.4634,7.51268 -16.87823,9.07532 -1.41482,1.56263 -5.29588,17.2615 -7.35899,17.69409 z"
       inkscape:transform-center-x="2.0512669"
       inkscape:transform-center-y="3.0917813"
       transform="matrix(0.68673133,0,0,0.69147888,30.284692,131.13548)" />
    <path
       sodipodi:type="star"
       style="opacity:1;fill:#ffdd55;fill-opacity:1;fill-rule:nonzero;stroke:none;stroke-width:0.38455898;stroke-linecap:butt;stroke-linejoin:miter;stroke-miterlimit:4;stroke-dasharray:none;stroke-dashoffset:0;stroke-opacity:1;paint-order:stroke fill markers"
       id="path1008-0"
       sodipodi:sides="5"
       sodipodi:cx="334.58923"
       sodipodi:cy="188.37973"
       sodipodi:r1="30.718321"
       sodipodi:r2="18.43099"
       sodipodi:arg1="1.3641131"
       sodipodi:arg2="1.9924316"
       inkscape:flatsided="false"
       inkscape:rounded="0.11"
       inkscape:randomized="0"
       d="m 340.89309,218.44427 c -2.06311,0.43259 -11.92344,-12.38502 -13.8468,-13.24772 -1.92336,-0.86269 -18.05318,0.29741 -19.10214,-1.53104 -1.04895,-1.82846 8.09432,-15.16705 8.32044,-17.26286 0.22612,-2.09581 -5.8616,-17.07769 -4.44678,-18.64033 1.41483,-1.56264 16.926,3.01128 18.98911,2.57869 2.06311,-0.43259 14.43052,-10.85201 16.35388,-9.98932 1.92336,0.8627 2.36653,17.02812 3.41548,18.85657 1.04895,1.82846 14.78015,10.37079 14.55403,12.4666 -0.22612,2.09581 -15.4634,7.51268 -16.87823,9.07532 -1.41482,1.56263 -5.29588,17.2615 -7.35899,17.69409 z"
       inkscape:transform-center-x="2.0512669"
       inkscape:transform-center-y="3.0917813"
       transform="matrix(0.68673133,0,0,0.69147888,-188.41059,122.40706)" />
  </g>
</svg>
